PathFileType	4	(X/Y/Z)	C:\Users\Basilio\Documents\Thesis Gigler\squatting_fais\c3dfiles\076\SLS_front_pre5\markers_experimental.trc
DataRate	CameraRate	NumFrames	NumMarkers	Units	OrigDataRate	OrigDataStartFrame	OrigNumFrames
200.000000	200.000000	4	61	mm	200.000000	445	1782
Frame#	Time	FHD			LBHD			RBHD			C7			T10			CLAV			LSHO			LUUPA			LMUPA			LDUPA			LLEP			LMEP			LRAD			LUL			LRFIN			RSHO			RUPA1			RMUPA			RDUPA			RLEP			RMEP			RRAD			RUL			RUFIN			LASI			RASI			USACR			LSACR			RSACR			LTHI1			LTHI2			LTHI3			LTHI4			LLFC			LMFC			LTIB1			LTIB2			LTIB3			LTIB4			LLMAL			LMMAL			LHEE			LMT1			LMT2			LMT5			RTHI			RTHI2			RTHI3			RTHI4			RLFC			RMFC			RTIB1			RTIB2			RTIB3			RTIB4			RLMAL			RMMAL			RHEE			RMT1			RMT2			RMT5			
		X1	Y1	Z1	X2	Y2	Z2	X3	Y3	Z3	X4	Y4	Z4	X5	Y5	Z5	X6	Y6	Z6	X7	Y7	Z7	X8	Y8	Z8	X9	Y9	Z9	X10	Y10	Z10	X11	Y11	Z11	X12	Y12	Z12	X13	Y13	Z13	X14	Y14	Z14	X15	Y15	Z15	X16	Y16	Z16	X17	Y17	Z17	X18	Y18	Z18	X19	Y19	Z19	X20	Y20	Z20	X21	Y21	Z21	X22	Y22	Z22	X23	Y23	Z23	X24	Y24	Z24	X25	Y25	Z25	X26	Y26	Z26	X27	Y27	Z27	X28	Y28	Z28	X29	Y29	Z29	X30	Y30	Z30	X31	Y31	Z31	X32	Y32	Z32	X33	Y33	Z33	X34	Y34	Z34	X35	Y35	Z35	X36	Y36	Z36	X37	Y37	Z37	X38	Y38	Z38	X39	Y39	Z39	X40	Y40	Z40	X41	Y41	Z41	X42	Y42	Z42	X43	Y43	Z43	X44	Y44	Z44	X45	Y45	Z45	X46	Y46	Z46	X47	Y47	Z47	X48	Y48	Z48	X49	Y49	Z49	X50	Y50	Z50	X51	Y51	Z51	X52	Y52	Z52	X53	Y53	Z53	X54	Y54	Z54	X55	Y55	Z55	X56	Y56	Z56	X57	Y57	Z57	X58	Y58	Z58	X59	Y59	Z59	X60	Y60	Z60	X61	Y61	Z61	

446	2.225	-280.1964721679688	1645.156982421875	-1026.779174804688	-416.7923583984376	1569.917114257813	-1123.426635742188	-402.2877197265626	1572.873779296875	-972.1591796875002	-457.7088012695314	1443.360595703125	-1044.166137695313	-470.4985961914064	1126.77685546875	-1049.306640625	-321.5254516601563	1379.678588867188	-1052.378784179688	-384.7106018066407	1397.540771484375	-1212.124145507813	-241.7563629150391	1334.325927734375	-1298.797729492188	-204.5093688964844	1353.610229492188	-1270.585571289063	-176.8443756103516	1323.611572265625	-1316.497924804688	-127.7128601074219	1300.496948242188	-1329.229248046875	-120.5720596313477	1242.882446289063	-1273.980102539063	121.7104949951172	1319.52783203125	-1291.566162109375	115.6599197387696	1314.934326171875	-1356.749755859375	205.6087493896485	1332.634643554688	-1300.629150390625	-364.1600036621094	1395.544555664063	-893.5696411132815	-223.1116333007813	1322.934204101563	-812.5347900390627	-190.8097381591797	1355.864013671875	-830.2212524414065	-153.722900390625	1311.718505859375	-809.4712524414065	-87.35280609130861	1312.753051757813	-811.6644287109377	-87.45021820068361	1265.564086914063	-873.831481933594	154.75537109375	1313.715942382813	-873.9390869140627	149.1132202148438	1309.832641601563	-808.1508789062502	230.5409393310547	1329.798461914063	-864.8657836914065	-293.2319335937501	949.8008422851565	-1143.886962890625	-300.4601745605469	962.192565917969	-926.6203613281252	-467.2801513671876	1016.223022460938	-1041.445068359375	-470.2935791015626	985.6948242187502	-1068.121459960938	-474.7292480468751	987.4277954101565	-1011.443786621094	-371.2229614257813	787.7714843750002	-1198.854125976563	-341.0838012695313	709.5625610351564	-1192.525756835938	-291.5297241210938	714.0704345703126	-1186.234375	-367.8196716308594	658.1806030273439	-1172.037353515625	-358.1078796386719	499.5186767578126	-1134.276733398438	-316.3381652832032	504.3790588378907	-1022.07861328125	-317.1974792480469	360.6744384765626	-1055.2880859375	-345.3683776855469	301.5495605468751	-1114.439453125	-313.2333068847657	307.8648986816407	-1080.563720703125	-325.1863708496094	234.6830291748047	-1039.255859375	-384.9585266113282	105.3386764526367	-1074.855346679688	-354.2881469726563	124.6278991699219	-998.495056152344	-441.026336669922	96.03968048095706	-1025.786376953125	-240.5441894531251	54.18729400634767	-1006.432312011719	-233.4790649414063	48.68944549560548	-1045.265502929688	-256.9474182128907	41.86360549926759	-1095.419921875	-306.1309509277344	722.7139282226564	-837.5056762695315	-248.7949829101563	687.4795532226564	-837.3052978515627	-220.0283203125001	701.9237060546876	-848.8873291015627	-243.0092010498047	604.3645019531251	-842.0300292968752	-224.1739807128907	546.7829589843751	-842.8062133789065	-199.5313262939454	537.5616455078126	-957.5551757812502	-151.4254913330078	424.5306091308595	-848.726013183594	-201.0974578857422	332.3769226074219	-817.6926269531252	-155.7661590576172	339.9113769531251	-827.8054809570315	-131.099105834961	296.2828369140626	-857.7778320312502	-154.8771362304688	144.9238739013672	-813.6166992187502	-137.986312866211	161.02783203125	-897.0969238281252	-202.0375061035157	100.9700927734375	-854.080017089844	-4.048666954040528	142.1968231201172	-882.6673583984377	3.828781366348267	154.6450805664063	-838.7673950195315	-16.14661407470703	130.8602447509766	-783.874450683594	
447	2.23	-280.0835266113282	1645.15283203125	-1027.150634765625	-416.8106384277345	1570.011474609375	-1123.761596679688	-402.2650146484376	1572.870483398438	-972.522399902344	-457.7531127929689	1443.426391601563	-1044.543334960938	-470.4974060058595	1126.809936523438	-1049.663696289063	-321.4391784667969	1379.745971679688	-1052.664916992188	-384.5710754394532	1397.497680664063	-1212.46435546875	-241.6073913574219	1334.3271484375	-1299.022705078125	-204.3407440185547	1353.56689453125	-1270.75439453125	-176.7022094726563	1323.549438476563	-1316.656005859375	-127.6378402709961	1300.494995117188	-1329.343383789063	-120.4524154663086	1242.870849609375	-1274.032470703125	121.935775756836	1319.53125	-1291.623779296875	115.7562713623047	1314.814086914063	-1356.76953125	205.7348785400391	1332.673217773438	-1300.664184570313	-364.2334899902344	1395.640258789063	-893.915466308594	-223.1071319580079	1323.040283203125	-812.9771728515627	-190.8418731689453	1356.111938476563	-830.5112304687502	-153.7649536132813	1311.911865234375	-809.7517700195315	-87.42114257812501	1313.000244140625	-812.0380859375002	-87.44233703613283	1265.78271484375	-874.2177734375002	154.8002624511719	1313.963500976563	-874.2656250000002	149.120849609375	1310.048706054688	-808.3770751953127	230.5442504882813	1330.1220703125	-865.0660400390627	-293.2785034179688	949.7871704101565	-1144.260498046875	-300.4786071777344	962.2733154296877	-926.9705810546877	-467.3718566894532	1016.303894042969	-1041.7353515625	-470.1990661621095	985.6188964843752	-1068.408203125	-474.9028625488282	987.5493164062502	-1011.743225097656	-371.3535766601563	787.775329589844	-1199.020141601563	-340.6115417480469	709.3629760742189	-1192.706298828125	-291.6578369140626	714.0362548828126	-1186.534423828125	-367.9177856445313	658.2181396484376	-1172.259521484375	-358.2423400878907	499.5191345214845	-1134.41552734375	-316.2818908691407	504.4031066894532	-1022.332946777344	-317.2751464843751	360.7714233398438	-1055.449829101563	-345.4607849121094	301.5131530761719	-1114.55517578125	-313.3289184570313	307.9210205078126	-1080.815307617188	-325.1788940429688	234.7148437500001	-1039.364501953125	-384.9394531250001	105.3271484375	-1074.946166992188	-354.2281799316407	124.6879653930664	-998.5544433593752	-441.0068969726564	96.10935211181643	-1025.899780273438	-240.4464111328126	54.23645401000978	-1006.4658203125	-233.3270721435547	48.67066574096681	-1045.418090820313	-256.9638366699219	41.85889434814454	-1095.421630859375	-306.3327026367188	722.7395019531251	-837.8459472656252	-249.0222930908204	687.6773071289064	-837.6765747070315	-220.2384948730469	702.1519775390626	-849.355407714844	-243.2262573242188	604.5362548828126	-842.7642211914065	-224.2405395507813	546.8253173828126	-843.4668579101565	-199.5072784423829	537.8261108398439	-958.253845214844	-150.2551879882813	425.4702758789064	-849.4895019531252	-198.7928314208985	332.6072082519532	-818.3154907226565	-153.5216369628907	340.7395629882813	-828.1773681640627	-128.368881225586	297.3604431152344	-858.4256591796877	-150.5407257080078	145.8008728027344	-814.0340576171877	-133.9219665527344	161.8974761962891	-897.5263671875002	-197.0123138427735	101.0894470214844	-854.4436645507815	0.3880809545516969	144.814682006836	-882.6180419921877	7.927189350128176	157.7830200195313	-838.6878051757815	-11.69517803192139	133.7666778564453	-783.8446044921877	
448	2.235	-280.0248718261719	1645.17431640625	-1027.5087890625	-416.7216796875001	1569.97607421875	-1124.203979492188	-402.2080078125001	1572.895874023438	-972.8839111328127	-457.7105407714845	1443.456176757813	-1044.8544921875	-470.551727294922	1126.813842773438	-1050.038696289063	-321.4432373046876	1379.780883789063	-1052.928100585938	-384.4330139160157	1397.507202148438	-1212.706665039063	-241.5248565673829	1334.325439453125	-1299.29150390625	-204.2093505859376	1353.5322265625	-1270.89697265625	-176.3942413330078	1323.477294921875	-1316.726806640625	-127.2566833496094	1300.46337890625	-1329.413452148438	-120.3310852050782	1242.908081054688	-1274.154296875	122.0573196411133	1319.525268554688	-1291.6806640625	115.9985275268555	1314.700439453125	-1356.744873046875	205.9125213623047	1332.699340820313	-1300.66357421875	-364.2445373535157	1395.80029296875	-894.217712402344	-223.1323242187501	1323.436279296875	-813.1982421875002	-190.8977661132813	1356.137451171875	-830.997253417969	-153.7727355957032	1312.155639648438	-809.9800415039065	-87.45053863525392	1313.142211914063	-812.2798461914065	-87.49780273437501	1266.026123046875	-874.5081787109377	154.7490844726563	1314.272216796875	-874.516784667969	149.0709686279297	1310.31201171875	-808.5291137695315	230.5573425292969	1330.414794921875	-865.1887207031252	-293.4685058593751	949.8077392578127	-1144.664184570313	-300.5549926757813	962.333435058594	-927.2898559570315	-467.401824951172	1016.335754394531	-1042.075073242188	-470.2986145019532	985.7081298828127	-1068.672729492188	-474.9067687988282	987.5588989257815	-1011.9990234375	-371.5013122558594	787.8201904296877	-1199.3037109375	-340.8519287109376	709.3332519531251	-1192.882690429688	-291.7618408203126	714.0305175781251	-1186.894897460938	-368.1897583007813	658.2940063476564	-1172.467529296875	-358.5018005371094	499.5803833007814	-1134.63232421875	-316.2914733886719	504.4495849609376	-1022.572143554688	-317.3209228515626	360.8440246582032	-1055.653930664063	-345.6717224121094	301.6419677734376	-1114.714599609375	-313.2724914550782	307.7560119628907	-1080.852783203125	-325.5500793457032	234.4076232910157	-1039.644165039063	-384.8909606933595	105.3256454467774	-1074.964965820313	-354.1766052246094	124.7314834594727	-998.6610107421877	-440.9969482421876	96.09167480468753	-1025.974243164063	-240.7380371093751	55.65341567993165	-1006.112731933594	-233.0305786132813	48.77566528320314	-1045.706665039063	-256.8998718261719	41.8168067932129	-1095.423095703125	-306.5173645019532	722.7945556640626	-838.1538696289065	-249.1680603027344	687.7901611328126	-838.0399169921877	-220.4209289550782	702.4852905273439	-849.8157348632815	-243.3483276367188	604.6401367187501	-843.4495239257815	-224.2176666259766	546.8912353515626	-844.139587402344	-199.0993652343751	538.0831298828126	-958.9859008789065	-149.0415496826172	426.2975158691407	-850.0847778320315	-196.5932769775391	332.8602905273438	-818.8747558593752	-151.4416961669922	341.7202758789063	-829.0952148437502	-125.7473220825196	298.4277343750001	-859.0541992187502	-146.3332061767578	146.6539459228516	-814.391784667969	-129.3902740478516	162.901107788086	-897.8446044921877	-191.9917449951172	101.2196121215821	-854.8569946289065	4.765583515167237	147.537338256836	-882.600036621094	12.07242584228516	160.5804290771485	-838.6583251953127	-7.392774105072023	136.4184875488282	-783.7918701171877	
449	2.24	-279.9281616210938	1645.206176757813	-1027.834838867188	-416.3253784179689	1570.400390625	-1124.869506835938	-402.1609802246095	1572.974853515625	-973.3443603515627	-457.8065490722657	1443.464721679688	-1045.185668945313	-470.5103759765626	1126.892944335938	-1050.4228515625	-321.3741455078126	1379.843627929688	-1053.205810546875	-384.2784118652345	1397.544799804688	-1213.019897460938	-241.3194122314454	1334.33447265625	-1299.4892578125	-204.1554565429688	1353.539306640625	-1271.093139648438	-176.4697265625	1323.536010742188	-1316.89111328125	-127.1304321289063	1300.411743164063	-1329.46142578125	-120.164306640625	1242.946655273438	-1274.212280273438	122.1786270141602	1319.508666992188	-1291.67529296875	116.1191711425782	1314.666870117188	-1356.758178710938	206.1444396972657	1332.733154296875	-1300.713989257813	-364.3358154296876	1395.84375	-894.478942871094	-223.1398468017579	1323.62451171875	-813.5118408203127	-190.8656311035157	1356.429443359375	-831.3226318359377	-153.7582092285157	1312.3603515625	-810.2700805664065	-87.59502410888673	1313.170166015625	-813.5801391601565	-87.53172302246095	1266.196411132813	-874.8035278320315	154.7327575683594	1314.507934570313	-874.7655029296877	149.023666381836	1310.437622070313	-808.8275146484377	230.5543518066407	1330.67626953125	-865.345397949219	-293.5005493164063	949.8251953125002	-1145.062377929688	-300.6258850097657	962.3985595703127	-927.6209716796877	-467.362274169922	1016.357421875	-1042.45263671875	-470.2918701171876	985.7510986328127	-1068.991943359375	-475.0944213867189	987.495544433594	-1012.327087402344	-371.6495971679688	787.8692016601565	-1199.559814453125	-341.0133361816407	709.4064331054689	-1193.11865234375	-291.8932189941407	714.0281372070314	-1187.126831054688	-368.2604064941407	658.3234252929689	-1172.68408203125	-358.6136169433594	499.617401123047	-1134.738647460938	-316.2994384765626	504.4805603027345	-1022.861450195313	-317.4719848632813	360.8294982910157	-1055.765502929688	-345.8232727050782	301.7859497070313	-1114.835205078125	-313.6915893554688	307.9194030761719	-1080.906494140625	-325.5415039062501	234.4669494628907	-1039.752197265625	-385.0330505371095	105.3139343261719	-1075.076538085938	-354.1503601074219	124.8163528442383	-998.7539062500002	-440.9881896972657	96.09927368164065	-1026.024658203125	-240.2240600585938	54.66220092773439	-1006.792358398438	-233.5854949951172	49.396785736084	-1046.188842773438	-256.9588623046876	41.78509521484376	-1095.47412109375	-306.6614990234376	722.8899536132814	-838.5078735351565	-249.3763427734376	687.8192749023439	-838.6218872070315	-220.5569763183594	702.7197875976564	-850.2072753906252	-243.4290618896485	604.9098510742189	-844.0364990234377	-224.2215270996094	546.9727783203126	-844.927673339844	-199.0989990234376	538.4584960937501	-959.852722167969	-147.7172241210938	427.1823120117189	-850.705749511719	-194.3380432128907	333.3105163574219	-819.499694824219	-149.3341217041016	342.3278198242188	-829.660827636719	-123.0399322509766	299.5673522949219	-859.253601074219	-142.1139068603516	147.4723815917969	-814.9493408203127	-125.375473022461	163.9677429199219	-898.1570434570315	-187.0329742431641	101.4547958374024	-855.4903564453127	9.169518470764162	150.1278686523438	-882.5606689453127	16.24309539794922	163.3170928955078	-838.6021728515627	-3.049450635910035	139.0422058105469	-783.8380126953127	
